# xmcd
#
# Track frame offsets:
#	150
#	36804
#	68830
#	111984
#	130907
#	169073
#	191934
#	206915
#	233561
#	276202
#	307848
#	341328
#
# Disc length: 4573 seconds
#
# Revision: 1
# Processed by: cddbd v1.5.2PL0 Copyright (c) Steve Scherf et al.
# Submitted via: audiograbber 1.83.01
#
DISCID=ae11db0c
DTITLE=Grateful Dead - 89-05-07 Frost Amphitheatre, Palo Alto CA
DYEAR=1900
DGENRE=
TTITLE0=Crazy Fingers
TTITLE1=Man Smart Women Smarter
TTITLE2=He's Gone
TTITLE3=Jam
TTITLE4=Drums
TTITLE5=Space
TTITLE6=Other One Themed Space
TTITLE7=The Other One
TTITLE8=Black Peter
TTITLE9=Turn On Your Lovelight
TTITLE10=Knockin On Heaven's Door
TTITLE11=Outtro
EXTD=
EXTT0=
EXTT1=
EXTT2=
EXTT3=
EXTT4=
EXTT5=
EXTT6=
EXTT7=
EXTT8=
EXTT9=
EXTT10=
EXTT11=
PLAYORDER=
